<svg width="301" height="70" viewBox="0 0 301 70" fill="none" xmlns="http://www.w3.org/2000/svg">
<path d="M2.95101 68C8.7818 65.663 17.2576 61.4874 25.835 54.0969C34.1705 46.9162 39.4463 39.4188 42.5975 34.115M15.5031 62.5308C18.5486 63.5984 26.5141 65.9415 36.2442 63.5177C38.5152 62.9526 47.5622 60.4642 54.7674 52.1211C62.3974 43.2856 63.2615 33.3239 63.7982 27.1241C64.3878 20.329 63.5725 14.7165 62.804 11.0918M9.91421 55.0091C10.5546 51.2331 14.1206 32.3451 30.2732 20.5146C40.0705 13.338 50.9005 11.3966 52.2403 11.1685C56.2068 10.4985 59.6162 10.4137 62.1128 10.4844M15.1392 38.9465C15.4461 34.4884 15.4095 29.227 14.5841 23.4026C14.2385 20.9647 13.7892 18.6801 13.283 16.5651M11.4959 48.0424C10.0199 46.5712 1.75355 38.0424 2.00565 24.6418C2.25165 11.6065 10.3777 3.5116 11.9554 2C13.7262 2.75076 18.6909 5.12412 22.1349 10.7366C25.7903 16.6963 25.4162 22.5348 25.2231 24.3895" stroke="#00831E" stroke-width="4" stroke-linecap="round" stroke-linejoin="round"/>
<path d="M119.056 29.416C119.056 31.3573 118.588 33.1773 117.652 34.876C116.751 36.5747 115.312 37.944 113.336 38.984C111.395 40.024 108.933 40.544 105.952 40.544H99.8679V54.48H92.5879V18.184H105.952C108.76 18.184 111.152 18.6693 113.128 19.64C115.104 20.6107 116.577 21.9453 117.548 23.644C118.553 25.3427 119.056 27.2667 119.056 29.416ZM105.64 34.668C107.651 34.668 109.141 34.2173 110.112 33.316C111.083 32.38 111.568 31.08 111.568 29.416C111.568 25.88 109.592 24.112 105.64 24.112H99.8679V34.668H105.64Z" fill="black"/>
<path d="M131.505 16V54.48H124.225V16H131.505Z" fill="black"/>
<path d="M136.825 39.972C136.825 37.06 137.397 34.4773 138.541 32.224C139.72 29.9707 141.297 28.2373 143.273 27.024C145.284 25.8107 147.52 25.204 149.981 25.204C152.131 25.204 154.003 25.6373 155.597 26.504C157.227 27.3707 158.527 28.4627 159.497 29.78V25.672H166.829V54.48H159.497V50.268C158.561 51.62 157.261 52.7467 155.597 53.648C153.968 54.5147 152.079 54.948 149.929 54.948C147.503 54.948 145.284 54.324 143.273 53.076C141.297 51.828 139.72 50.0773 138.541 47.824C137.397 45.536 136.825 42.9187 136.825 39.972ZM159.497 40.076C159.497 38.308 159.151 36.8 158.457 35.552C157.764 34.2693 156.828 33.2987 155.649 32.64C154.471 31.9467 153.205 31.6 151.853 31.6C150.501 31.6 149.253 31.9293 148.109 32.588C146.965 33.2467 146.029 34.2173 145.301 35.5C144.608 36.748 144.261 38.2387 144.261 39.972C144.261 41.7053 144.608 43.2307 145.301 44.548C146.029 45.8307 146.965 46.8187 148.109 47.512C149.288 48.2053 150.536 48.552 151.853 48.552C153.205 48.552 154.471 48.2227 155.649 47.564C156.828 46.8707 157.764 45.9 158.457 44.652C159.151 43.3693 159.497 41.844 159.497 40.076Z" fill="black"/>
<path d="M189.903 25.256C193.335 25.256 196.109 26.348 198.223 28.532C200.338 30.6813 201.395 33.6973 201.395 37.58V54.48H194.115V38.568C194.115 36.28 193.543 34.5293 192.399 33.316C191.255 32.068 189.695 31.444 187.719 31.444C185.709 31.444 184.114 32.068 182.935 33.316C181.791 34.5293 181.219 36.28 181.219 38.568V54.48H173.939V25.672H181.219V29.26C182.19 28.012 183.421 27.0413 184.911 26.348C186.437 25.62 188.101 25.256 189.903 25.256Z" fill="black"/>
<path d="M216.794 31.652V45.588C216.794 46.5587 217.02 47.2693 217.47 47.72C217.956 48.136 218.753 48.344 219.862 48.344H223.242V54.48H218.666C212.53 54.48 209.462 51.4987 209.462 45.536V31.652H206.03V25.672H209.462V18.548H216.794V25.672H223.242V31.652H216.794Z" fill="black"/>
<path d="M226.607 40.076C226.607 37.0947 227.213 34.4947 228.427 32.276C229.64 30.0227 231.321 28.2893 233.471 27.076C235.62 25.828 238.081 25.204 240.855 25.204C244.425 25.204 247.372 26.1053 249.695 27.908C252.052 29.676 253.629 32.172 254.427 35.396H246.575C246.159 34.148 245.448 33.1773 244.443 32.484C243.472 31.756 242.259 31.392 240.803 31.392C238.723 31.392 237.076 32.1547 235.863 33.68C234.649 35.1707 234.043 37.3027 234.043 40.076C234.043 42.8147 234.649 44.9467 235.863 46.472C237.076 47.9627 238.723 48.708 240.803 48.708C243.749 48.708 245.673 47.3907 246.575 44.756H254.427C253.629 47.876 252.052 50.3547 249.695 52.192C247.337 54.0293 244.391 54.948 240.855 54.948C238.081 54.948 235.62 54.3413 233.471 53.128C231.321 51.88 229.64 50.1467 228.427 47.928C227.213 45.6747 226.607 43.0573 226.607 40.076Z" fill="black"/>
<path d="M272.552 54.948C269.778 54.948 267.282 54.3413 265.064 53.128C262.845 51.88 261.094 50.1293 259.812 47.876C258.564 45.6227 257.94 43.0227 257.94 40.076C257.94 37.1293 258.581 34.5293 259.864 32.276C261.181 30.0227 262.966 28.2893 265.22 27.076C267.473 25.828 269.986 25.204 272.76 25.204C275.533 25.204 278.046 25.828 280.3 27.076C282.553 28.2893 284.321 30.0227 285.604 32.276C286.921 34.5293 287.58 37.1293 287.58 40.076C287.58 43.0227 286.904 45.6227 285.552 47.876C284.234 50.1293 282.432 51.88 280.144 53.128C277.89 54.3413 275.36 54.948 272.552 54.948ZM272.552 48.604C273.869 48.604 275.1 48.292 276.244 47.668C277.422 47.0093 278.358 46.0387 279.052 44.756C279.745 43.4733 280.092 41.9133 280.092 40.076C280.092 37.3373 279.364 35.24 277.908 33.784C276.486 32.2933 274.736 31.548 272.656 31.548C270.576 31.548 268.825 32.2933 267.404 33.784C266.017 35.24 265.324 37.3373 265.324 40.076C265.324 42.8147 266 44.9293 267.352 46.42C268.738 47.876 270.472 48.604 272.552 48.604Z" fill="black"/>
<path d="M296.144 54.844C294.827 54.844 293.735 54.4453 292.868 53.648C292.036 52.816 291.62 51.7933 291.62 50.58C291.62 49.3667 292.036 48.3613 292.868 47.564C293.735 46.732 294.827 46.316 296.144 46.316C297.427 46.316 298.484 46.732 299.316 47.564C300.148 48.3613 300.564 49.3667 300.564 50.58C300.564 51.7933 300.148 52.816 299.316 53.648C298.484 54.4453 297.427 54.844 296.144 54.844Z" fill="black"/>
</svg>
