<?xml version="1.0" encoding="UTF-8"?><svg id="Layer_1" xmlns="http://www.w3.org/2000/svg" viewBox="0 0 300.56 70"><defs><style>.cls-1{fill:#fff;}.cls-2{fill:none;stroke:#fff;stroke-linecap:round;stroke-linejoin:round;stroke-width:4px;}</style></defs><path class="cls-2" d="M2.95,68c5.83-2.34,14.31-6.51,22.88-13.9,8.34-7.18,13.61-14.68,16.76-19.98M15.5,62.53c3.05,1.07,11.01,3.41,20.74.99,2.27-.57,11.32-3.05,18.52-11.4,7.63-8.84,8.49-18.8,9.03-25,.59-6.8-.23-12.41-.99-16.03M9.91,55.01c.64-3.78,4.21-22.66,20.36-34.49,9.8-7.18,20.63-9.12,21.97-9.35,3.97-.67,7.38-.75,9.87-.68M15.14,38.95c.31-4.46.27-9.72-.56-15.54-.35-2.44-.79-4.72-1.3-6.84M11.5,48.04c-1.48-1.47-9.74-10-9.49-23.4C2.25,11.61,10.38,3.51,11.96,2c1.77.75,6.74,3.12,10.18,8.74,3.66,5.96,3.28,11.8,3.09,13.65"/><path class="cls-1" d="M119.06,29.42c0,1.94-.47,3.76-1.4,5.46-.9,1.7-2.34,3.07-4.32,4.11-1.94,1.04-4.4,1.56-7.38,1.56h-6.08v13.94h-7.28V18.18h13.36c2.81,0,5.2.49,7.18,1.46,1.98.97,3.45,2.31,4.42,4,1.01,1.7,1.51,3.62,1.51,5.77ZM105.64,34.67c2.01,0,3.5-.45,4.47-1.35.97-.94,1.46-2.24,1.46-3.9,0-3.54-1.98-5.3-5.93-5.3h-5.77v10.56h5.77Z"/><path class="cls-1" d="M131.51,16v38.48h-7.28V16h7.28Z"/><path class="cls-1" d="M136.82,39.97c0-2.91.57-5.49,1.72-7.75,1.18-2.25,2.76-3.99,4.73-5.2,2.01-1.21,4.25-1.82,6.71-1.82,2.15,0,4.02.43,5.62,1.3,1.63.87,2.93,1.96,3.9,3.28v-4.11h7.33v28.81h-7.33v-4.21c-.94,1.35-2.24,2.48-3.9,3.38-1.63.87-3.52,1.3-5.67,1.3-2.43,0-4.65-.62-6.66-1.87-1.98-1.25-3.55-3-4.73-5.25-1.14-2.29-1.72-4.91-1.72-7.85ZM159.5,40.08c0-1.77-.35-3.28-1.04-4.52-.69-1.28-1.63-2.25-2.81-2.91-1.18-.69-2.44-1.04-3.8-1.04s-2.6.33-3.74.99c-1.14.66-2.08,1.63-2.81,2.91-.69,1.25-1.04,2.74-1.04,4.47s.35,3.26,1.04,4.58c.73,1.28,1.66,2.27,2.81,2.96,1.18.69,2.43,1.04,3.74,1.04s2.62-.33,3.8-.99c1.18-.69,2.12-1.66,2.81-2.91.69-1.28,1.04-2.81,1.04-4.58Z"/><path class="cls-1" d="M189.9,25.26c3.43,0,6.21,1.09,8.32,3.28,2.11,2.15,3.17,5.17,3.17,9.05v16.9h-7.28v-15.91c0-2.29-.57-4.04-1.72-5.25-1.14-1.25-2.7-1.87-4.68-1.87s-3.6.62-4.78,1.87c-1.14,1.21-1.72,2.96-1.72,5.25v15.91h-7.28v-28.81h7.28v3.59c.97-1.25,2.2-2.22,3.69-2.91,1.53-.73,3.19-1.09,4.99-1.09Z"/><path class="cls-1" d="M216.79,31.65v13.94c0,.97.23,1.68.68,2.13.49.42,1.28.62,2.39.62h3.38v6.14h-4.58c-6.14,0-9.2-2.98-9.2-8.94v-13.88h-3.43v-5.98h3.43v-7.12h7.33v7.12h6.45v5.98h-6.45Z"/><path class="cls-1" d="M226.61,40.08c0-2.98.61-5.58,1.82-7.8,1.21-2.25,2.89-3.99,5.04-5.2,2.15-1.25,4.61-1.87,7.38-1.87,3.57,0,6.52.9,8.84,2.7,2.36,1.77,3.93,4.26,4.73,7.49h-7.85c-.42-1.25-1.13-2.22-2.13-2.91-.97-.73-2.18-1.09-3.64-1.09-2.08,0-3.73.76-4.94,2.29-1.21,1.49-1.82,3.62-1.82,6.4s.61,4.87,1.82,6.4c1.21,1.49,2.86,2.24,4.94,2.24,2.95,0,4.87-1.32,5.77-3.95h7.85c-.8,3.12-2.38,5.6-4.73,7.44-2.36,1.84-5.3,2.76-8.84,2.76-2.77,0-5.24-.61-7.38-1.82-2.15-1.25-3.83-2.98-5.04-5.2-1.21-2.25-1.82-4.87-1.82-7.85Z"/><path class="cls-1" d="M272.55,54.95c-2.77,0-5.27-.61-7.49-1.82-2.22-1.25-3.97-3-5.25-5.25-1.25-2.25-1.87-4.85-1.87-7.8s.64-5.55,1.92-7.8c1.32-2.25,3.1-3.99,5.36-5.2,2.25-1.25,4.77-1.87,7.54-1.87s5.29.62,7.54,1.87c2.25,1.21,4.02,2.95,5.3,5.2,1.32,2.25,1.98,4.85,1.98,7.8s-.68,5.55-2.03,7.8c-1.32,2.25-3.12,4-5.41,5.25-2.25,1.21-4.78,1.82-7.59,1.82ZM272.55,48.6c1.32,0,2.55-.31,3.69-.94,1.18-.66,2.11-1.63,2.81-2.91.69-1.28,1.04-2.84,1.04-4.68,0-2.74-.73-4.84-2.18-6.29-1.42-1.49-3.17-2.24-5.25-2.24s-3.83.75-5.25,2.24c-1.39,1.46-2.08,3.55-2.08,6.29s.68,4.85,2.03,6.34c1.39,1.46,3.12,2.18,5.2,2.18Z"/><path class="cls-1" d="M296.14,54.84c-1.32,0-2.41-.4-3.28-1.2-.83-.83-1.25-1.85-1.25-3.07s.42-2.22,1.25-3.02c.87-.83,1.96-1.25,3.28-1.25s2.34.42,3.17,1.25c.83.8,1.25,1.8,1.25,3.02s-.42,2.24-1.25,3.07c-.83.8-1.89,1.2-3.17,1.2Z"/></svg>